<svg xmlns="http://www.w3.org/2000/svg" viewBox="0 0 83.06 8.22"><defs><style>.cls-1{fill:#231815;}</style></defs><g id="レイヤー_2" data-name="レイヤー 2"><g id="うr"><path class="cls-1" d="M.05.17l1.09,0,1.09,0,1,0,1,0V.46a2.2,2.2,0,0,0-.68.09.93.93,0,0,0-.42.22.85.85,0,0,0-.21.4,2.62,2.62,0,0,0-.06.61V6.86a.79.79,0,0,0,.3.69,2,2,0,0,0,1,.25l0,.29-1,0H1.08L0,8.09V7.8a2,2,0,0,0,1-.25.79.79,0,0,0,.3-.69V1.78a1.49,1.49,0,0,0-.27-1,1.42,1.42,0,0,0-1-.31Z"/><path class="cls-1" d="M11.9,2.68a3.35,3.35,0,0,0-.35-1.07A1.65,1.65,0,0,0,11,1a1.76,1.76,0,0,0-.74-.26A6.85,6.85,0,0,0,9.3.7V6.43a4.14,4.14,0,0,0,0,.67.8.8,0,0,0,.16.41.75.75,0,0,0,.4.23,4.61,4.61,0,0,0,.72.11v.24l-1,0H7.49l-1.12,0V7.85a4.25,4.25,0,0,0,.72-.11.75.75,0,0,0,.4-.23.81.81,0,0,0,.17-.41,6.06,6.06,0,0,0,0-.67V.7a6.85,6.85,0,0,0-1,.06A1.76,1.76,0,0,0,6,1a1.65,1.65,0,0,0-.55.59,3.62,3.62,0,0,0-.35,1.07H4.78c0-.16,0-.31,0-.47s0-.33,0-.52a6.38,6.38,0,0,0,0-.66c0-.25,0-.53,0-.86l1.77,0,1.77,0,1.8,0,1.81,0c0,.33,0,.61,0,.86s0,.47,0,.66,0,.37,0,.52,0,.31,0,.47Z"/><path class="cls-1" d="M15.48.17l.79,0,.78,0c.65,0,1.3,0,1.95-.07V.46h-.31a.89.89,0,0,0-.28.07.55.55,0,0,0-.2.17.52.52,0,0,0-.08.31,2.25,2.25,0,0,0,.09.31l.24.69c.1.28.22.59.34.94L19.19,4c.14.37.27.73.39,1.09s.24.68.34,1h0l1.3-3.35c-.18-.5-.33-.89-.46-1.18a3.48,3.48,0,0,0-.36-.66,1,1,0,0,0-.37-.33,1.76,1.76,0,0,0-.47-.13V.17c.6,0,1.18.07,1.76.07l1,0,1,0V.46L23,.49a1.35,1.35,0,0,0-.36.07.79.79,0,0,0-.29.18.41.41,0,0,0-.12.32,2.57,2.57,0,0,0,.11.45c.07.23.16.52.27.85s.24.69.38,1.07l.41,1.11c.13.36.26.68.37,1l.26.67c.05-.11.13-.3.23-.56l.37-.89q.21-.5.42-1.05c.14-.37.28-.73.4-1.06s.21-.63.29-.89a2,2,0,0,0,.11-.55.54.54,0,0,0-.1-.35.67.67,0,0,0-.26-.21A1.75,1.75,0,0,0,25.2.5a1.88,1.88,0,0,0-.31,0V.17l.75,0,.75,0,.69,0,.69,0V.46a1.89,1.89,0,0,0-.48.11A1.08,1.08,0,0,0,27,.78a2,2,0,0,0-.26.31,4.65,4.65,0,0,0-.23.41l-.34.72-.48,1.1-.55,1.31q-.3.69-.57,1.35L24,7.23l-.37,1h-.42L21.46,3.31c-.32.83-.65,1.65-1,2.45s-.7,1.61-1,2.44h-.36L16.73,1.67c-.06-.17-.12-.33-.18-.47a1.63,1.63,0,0,0-.24-.38A1.06,1.06,0,0,0,16,.56a1.2,1.2,0,0,0-.5-.1Z"/><path class="cls-1" d="M27.83.17l1.09,0L30,.24l1,0,1,0V.46a2.2,2.2,0,0,0-.68.09A.93.93,0,0,0,31,.77a.85.85,0,0,0-.21.4,2.62,2.62,0,0,0-.06.61V6.86a.79.79,0,0,0,.3.69,2,2,0,0,0,1,.25l0,.29L31,8.05H28.86l-1.08,0V7.8a2,2,0,0,0,1-.25.79.79,0,0,0,.3-.69V1.78a1.49,1.49,0,0,0-.27-1,1.42,1.42,0,0,0-1-.31Z"/><path class="cls-1" d="M33.94,1.62a1.38,1.38,0,0,0-.09-.54.78.78,0,0,0-.26-.33A1,1,0,0,0,33.2.56a2.43,2.43,0,0,0-.51-.1V.17c.72,0,1.44.07,2.17.07s1.48,0,2.22-.07V.46a3.53,3.53,0,0,0-.55.1A1.67,1.67,0,0,0,36,.75a1,1,0,0,0-.36.33,1,1,0,0,0-.14.54V7.55a2.47,2.47,0,0,0,.47.06c.2,0,.42,0,.65,0a4.63,4.63,0,0,0,1.18-.13,3.13,3.13,0,0,0,.91-.41,3.5,3.5,0,0,0,.73-.71,7.16,7.16,0,0,0,.62-1l.3.13a12.56,12.56,0,0,0-.54,1.26,11.83,11.83,0,0,0-.4,1.32l-1.67,0H34.4l-1.74,0V7.8l.47,0a1.31,1.31,0,0,0,.41-.12.66.66,0,0,0,.29-.26A.83.83,0,0,0,33.94,7Z"/><path class="cls-1" d="M41.94,1.62a1.38,1.38,0,0,0-.09-.54A.76.76,0,0,0,41.6.75a1.18,1.18,0,0,0-.39-.19,2.53,2.53,0,0,0-.52-.1V.17c.72,0,1.45.07,2.17.07s1.48,0,2.22-.07V.46a3.76,3.76,0,0,0-.55.1A1.79,1.79,0,0,0,44,.75a1,1,0,0,0-.35.33.91.91,0,0,0-.14.54V7.55a2.36,2.36,0,0,0,.47.06c.2,0,.41,0,.64,0a4.63,4.63,0,0,0,1.18-.13,3,3,0,0,0,.91-.41,3.27,3.27,0,0,0,.73-.71,7.17,7.17,0,0,0,.63-1l.3.13a12.65,12.65,0,0,0-.55,1.26c-.15.43-.29.87-.4,1.32l-1.66,0H42.4l-1.73,0V7.8l.47,0a1.25,1.25,0,0,0,.4-.12.66.66,0,0,0,.29-.26A.83.83,0,0,0,41.94,7Z"/><path class="cls-1" d="M51.78.19l.87,0h1c.43,0,.86,0,1.29,0s.89,0,1.36,0a3.29,3.29,0,0,1,1.12.18,2.39,2.39,0,0,1,.85.5,2,2,0,0,1,.54.73A2.17,2.17,0,0,1,59,2.5a1.83,1.83,0,0,1-.14.73,1.68,1.68,0,0,1-.38.56,2.54,2.54,0,0,1-.56.39,3.7,3.7,0,0,1-.71.24l.62,1a11.94,11.94,0,0,0,.83,1.08,6.38,6.38,0,0,0,1,.92,2.48,2.48,0,0,0,1.06.49v.22l-.68,0H58.69l-.6,0a20.1,20.1,0,0,1-1.4-1.68,20.47,20.47,0,0,1-1.17-1.84l-.46-.07a1,1,0,0,1-.39-.14V6.43a5.86,5.86,0,0,0,0,.66.69.69,0,0,0,.16.4.78.78,0,0,0,.36.21,3.88,3.88,0,0,0,.66.1v.29l-.91,0H52.86l-1.08,0V7.8a4.29,4.29,0,0,0,.7-.1.9.9,0,0,0,.39-.21.86.86,0,0,0,.16-.4,5.86,5.86,0,0,0,0-.66V1.87a5.28,5.28,0,0,0,0-.61,1,1,0,0,0-.16-.42.86.86,0,0,0-.39-.26,2.71,2.71,0,0,0-.7-.12Zm2.89,3.7a1.91,1.91,0,0,0,.81.18,1.79,1.79,0,0,0,1.27-.45,1.62,1.62,0,0,0,.49-1.29,2.15,2.15,0,0,0-.11-.68,1.68,1.68,0,0,0-.33-.55A1.56,1.56,0,0,0,55.61.6l-.47,0a2.89,2.89,0,0,0-.47.11Z"/><path class="cls-1" d="M59.92,7.8a1.58,1.58,0,0,0,.55-.14,1.19,1.19,0,0,0,.38-.27A1.89,1.89,0,0,0,61.11,7c.08-.15.15-.32.23-.51L63.7,1,63.48.43c.26,0,.51-.1.76-.17A6.93,6.93,0,0,0,65,0l2.6,7.07a1,1,0,0,0,.5.56,1.78,1.78,0,0,0,.74.17v.29l-.52,0H65.62l-1,0V7.8a2.52,2.52,0,0,0,.92-.2.51.51,0,0,0,.3-.47,1.1,1.1,0,0,0,0-.28,2.67,2.67,0,0,0-.11-.34c0-.12-.08-.23-.13-.35l-.11-.29L65,4.68H62.65L62,6.37c0,.11-.08.22-.13.33a1.07,1.07,0,0,0-.06.39.39.39,0,0,0,.1.27,1.09,1.09,0,0,0,.26.21,2.17,2.17,0,0,0,.35.15l.34.08v.29l-.77,0H60.64l-.72,0Zm5-3.58-1-2.8h0l-1,2.8Z"/><path class="cls-1" d="M69,.17,70,.22l1.1,0,1,0,1,0V.46a2.2,2.2,0,0,0-.68.09.93.93,0,0,0-.42.22.85.85,0,0,0-.21.4,2.62,2.62,0,0,0-.06.61V6.86a.79.79,0,0,0,.3.69,2,2,0,0,0,1,.25l0,.29-1,0H70l-1.08,0V7.8a2,2,0,0,0,1-.25.79.79,0,0,0,.3-.69V1.78a1.49,1.49,0,0,0-.27-1,1.44,1.44,0,0,0-1-.31Z"/><path class="cls-1" d="M73.54,7.8a8.25,8.25,0,0,0,.88-.18,1,1,0,0,0,.5-.29,1.06,1.06,0,0,0,.21-.53,6.3,6.3,0,0,0,.05-.86l0-4.67A1.79,1.79,0,0,0,74.87,1a2.32,2.32,0,0,0-.41-.22L74,.58,73.56.46V.17l.63,0,.63,0c.55,0,1.1,0,1.63-.07.8,1,1.61,2,2.43,2.9S80.49,5,81.25,6h0V5c0-.39,0-.8,0-1.22s0-.83-.06-1.22-.06-.73-.1-1a1.52,1.52,0,0,0-.17-.51.92.92,0,0,0-.29-.33,1.4,1.4,0,0,0-.41-.19c-.16,0-.33-.08-.53-.11V.17l.85,0,.85,0c.56,0,1.11,0,1.66-.07V.46a2.29,2.29,0,0,0-.74.13.76.76,0,0,0-.41.36,1.53,1.53,0,0,0-.18.68,10.31,10.31,0,0,0,0,1.08V8.22H81c-.24-.37-.52-.76-.82-1.18s-.62-.83-1-1.25l-1-1.24c-.34-.41-.67-.79-1-1.15l-.86-1c-.27-.3-.49-.55-.68-.74V5.74a8.12,8.12,0,0,0,0,1,1.21,1.21,0,0,0,.21.59.92.92,0,0,0,.48.31,5.4,5.4,0,0,0,.84.19v.29l-.88,0H74.52l-1,0Z"/></g></g></svg>