<svg xmlns="http://www.w3.org/2000/svg" viewBox="0 0 146.34 65.25"><defs><style>.cls-1{isolation:isolate;}.cls-2{font-size:12px;}.cls-2,.cls-3,.cls-4{fill:#231815;font-family:Cochin-Bold, Cochin;font-weight:700;}.cls-3{font-size:8px;}.cls-4{font-size:5px;}.cls-5,.cls-6{fill:#fff100;}.cls-5{mix-blend-mode:multiply;}.cls-7{fill:#59a8a8;}</style></defs><g class="cls-1"><g id="レイヤー_2" data-name="レイヤー 2"><g id="うr"><text class="cls-2" transform="translate(45.17 9.94)">IT WILL RAIN</text><text class="cls-3" transform="translate(33.3 49.9)">WEB &amp; SILK SCREEN PRINT</text><text class="cls-4" transform="translate(73.27 56.69)">SOMETIMES ILLUSTRATION</text><text class="cls-4" transform="translate(103.27 63.03)">www.itwillrain.com</text><rect class="cls-5" x="61.2" y="46.69" width="50.68" height="0.36" transform="translate(-7.79 74.93) rotate(-45)"/><rect class="cls-5" x="53.49" y="46.69" width="50.68" height="0.36" transform="translate(-10.05 69.47) rotate(-45)"/><polygon class="cls-5" points="87.93 29.42 52.09 65.25 0 47.73 87.67 29.16 87.93 29.42"/><circle class="cls-6" cx="98.8" cy="25.17" r="8.06"/><path class="cls-7" d="M97.53,24.55a1.83,1.83,0,0,0,.22-1.68c-.2-.82-1.5-1.33-1.5-1.33-3-.91-3.47,1.65-3.47,1.65a5.35,5.35,0,0,0-5.51-5.44c-3.16,0-6,2.75-5.31,5.8a2.4,2.4,0,0,0-2-.61,2.61,2.61,0,0,0-2.5,3,3.21,3.21,0,0,0-3-1.59,6.38,6.38,0,0,0-.29,12.76H98a6.38,6.38,0,0,0,6.11-6.37C104.08,27.2,102,24.12,97.53,24.55Z"/></g></g></g></svg>